<?xml version="1.0" encoding="UTF-8" standalone="no"?>
<svg
   xmlns:dc="http://purl.org/dc/elements/1.1/"
   xmlns:cc="http://creativecommons.org/ns#"
   xmlns:rdf="http://www.w3.org/1999/02/22-rdf-syntax-ns#"
   xmlns:svg="http://www.w3.org/2000/svg"
   xmlns="http://www.w3.org/2000/svg"
   xmlns:sodipodi="http://sodipodi.sourceforge.net/DTD/sodipodi-0.dtd"
   xmlns:inkscape="http://www.inkscape.org/namespaces/inkscape"
   enable-background="new 0 0 32 32"
   height="32px"
   id="Layer_1"
   version="1.0"
   viewBox="0 0 32 32"
   width="32px"
   xml:space="preserve"
   inkscape:version="0.48.3.1 r9886"
   sodipodi:docname="proguard-snippets.svg"
   inkscape:export-filename="/home/andrew/workspace/8tory-gitlab/gitlab/android/android-proguard-snippets/art/proguard-snippets.png"
   inkscape:export-xdpi="720"
   inkscape:export-ydpi="720"><metadata
   id="metadata27"><rdf:RDF><cc:Work
       rdf:about=""><dc:format>image/svg+xml</dc:format><dc:type
         rdf:resource="http://purl.org/dc/dcmitype/StillImage" /><dc:title></dc:title></cc:Work></rdf:RDF></metadata><defs
   id="defs25"><clipPath
     clipPathUnits="userSpaceOnUse"
     id="clipPath2999"><g
       style="font-size:10px;font-style:normal;font-variant:normal;font-weight:normal;font-stretch:condensed;text-align:center;line-height:100%;letter-spacing:0px;word-spacing:0px;writing-mode:lr-tb;text-anchor:middle;fill:#ffffff;fill-opacity:1;stroke:none;font-family:Impact;-inkscape-font-specification:Impact Condensed"
       id="g3001"
       transform="matrix(0.74961511,0,0,0.74961511,3.7688701,-1.5651501)"><path
         d="m 8.4731445,7.0473633 2.0703125,0 c 0.559893,7.9e-6 0.98958,0.043953 1.289063,0.1318359 0.30273,0.087898 0.528967,0.2148513 0.67871,0.3808594 0.152991,0.1660228 0.25553,0.3678456 0.307618,0.6054687 0.05533,0.2343816 0.083,0.5989646 0.08301,1.09375 l 0,0.6884766 c -4e-6,0.5045621 -0.05209,0.8724001 -0.15625,1.1035161 -0.104171,0.231123 -0.296228,0.408532 -0.576171,0.532226 -0.276697,0.123701 -0.639652,0.18555 -1.088868,0.185547 l -0.551757,0 0,3.183594 -2.0556645,0 0,-7.9052737 m 2.0556645,1.352539 0,2.0117187 c 0.05859,0.0033 0.109046,0.0049 0.151367,0.0049 0.188799,4e-6 0.319007,-0.04557 0.390625,-0.136719 0.07487,-0.0944 0.112301,-0.2880808 0.112304,-0.5810545 l 0,-0.6494141 c -3e-6,-0.2701761 -0.04232,-0.4459572 -0.126953,-0.5273437 -0.08464,-0.081374 -0.260419,-0.1220638 -0.527343,-0.1220704"
         id="path3003"
         inkscape:connector-curvature="0" /><path
         d="m 13.492676,7.0473633 1.455078,0 c 0.970049,7.9e-6 1.625973,0.037443 1.967773,0.1123047 0.345048,0.074878 0.624996,0.2669346 0.839844,0.5761718 0.218094,0.3059965 0.327144,0.7959049 0.327149,1.4697266 -5e-6,0.6152395 -0.0765,1.0286506 -0.229493,1.2402346 -0.152999,0.211593 -0.454106,0.338546 -0.90332,0.380859 0.406897,0.100916 0.680334,0.236007 0.820313,0.405274 0.139969,0.169274 0.226232,0.325524 0.258789,0.46875 0.0358,0.139977 0.05371,0.528974 0.05371,1.166992 l 0,2.084961 -1.90918,0 0,-2.626953 c -3e-6,-0.423174 -0.03418,-0.685218 -0.102539,-0.786133 -0.06511,-0.100908 -0.239261,-0.151364 -0.522461,-0.151367 l 0,3.564453 -2.055664,0 0,-7.9052737 m 2.055664,1.352539 0,1.7578127 c 0.231117,5e-6 0.39225,-0.03092 0.483398,-0.09277 0.0944,-0.065099 0.141599,-0.2718043 0.141602,-0.6201168 l 0,-0.4345703 C 16.173336,8.7596131 16.127759,8.5952252 16.03662,8.5170938 15.94873,8.4389758 15.785966,8.3999129 15.548339,8.3999063"
         id="path3005"
         inkscape:connector-curvature="0" /><path
         d="m 23.580566,11.67627 c -5e-6,0.794273 -0.01954,1.357423 -0.05859,1.689453 -0.03581,0.328777 -0.153,0.629883 -0.351563,0.90332 -0.195317,0.273438 -0.460616,0.483399 -0.795898,0.629883 -0.33529,0.146484 -0.725915,0.219726 -1.171875,0.219726 -0.42318,0 -0.804039,-0.06836 -1.142578,-0.205078 -0.335288,-0.139974 -0.60547,-0.348307 -0.810547,-0.625 -0.205079,-0.276692 -0.327149,-0.577798 -0.366211,-0.90332 -0.03906,-0.325519 -0.05859,-0.89518 -0.05859,-1.708984 l 0,-1.35254 c 0,-0.7942649 0.0179,-1.3557878 0.05371,-1.6845698 0.03906,-0.3320246 0.156249,-0.6347587 0.351562,-0.9082032 0.198567,-0.27343 0.465494,-0.4833907 0.800782,-0.6298828 0.335284,-0.1464764 0.725909,-0.2197185 1.171875,-0.2197265 0.423174,8e-6 0.802405,0.069995 1.137695,0.2099609 0.338537,0.1367265 0.610347,0.343432 0.81543,0.6201172 0.205073,0.2766997 0.327143,0.5778061 0.366211,0.9033203 0.03906,0.3255268 0.05859,0.8951877 0.05859,1.7089839 l 0,1.35254 M 21.524902,9.0786133 c -3e-6,-0.3678323 -0.02116,-0.6022071 -0.06348,-0.703125 -0.03907,-0.10416 -0.122073,-0.1562433 -0.249024,-0.15625 -0.107424,6.7e-6 -0.190432,0.042324 -0.249023,0.1269531 -0.05534,0.081387 -0.08301,0.3255271 -0.08301,0.7324219 l 0,3.6914067 c -2e-6,0.458986 0.0179,0.742188 0.05371,0.849609 0.03906,0.107423 0.126951,0.161134 0.263672,0.161133 0.139971,1e-6 0.229489,-0.06185 0.268555,-0.185547 0.03906,-0.123697 0.05859,-0.418293 0.05859,-0.883789 l 0,-3.6328127"
         id="path3007"
         inkscape:connector-curvature="0" /><path
         d="m 7.6430664,19.95752 -2.0556641,0 0,-0.717774 c -3e-6,-0.452468 -0.019534,-0.735671 -0.058594,-0.849609 -0.039065,-0.113926 -0.1318388,-0.170892 -0.2783203,-0.170899 -0.1269558,7e-6 -0.2132187,0.04884 -0.2587891,0.146485 -0.045575,0.09766 -0.068362,0.348313 -0.068359,0.751953 l 0,3.793945 c -2.4e-6,0.354819 0.022784,0.589194 0.068359,0.703125 0.04557,0.110678 0.1367162,0.166017 0.2734375,0.166016 0.1497367,1e-6 0.2506481,-0.06348 0.3027344,-0.19043 0.055335,-0.126952 0.083005,-0.374347 0.083008,-0.742187 l 0,-0.9375 -0.4150391,0 0,-1.201172 2.4072266,0 0,4.243164 -1.2939453,0 -0.1904297,-0.566407 c -0.1399775,0.244141 -0.3173861,0.428061 -0.5322266,0.551758 -0.2115914,0.120443 -0.4622422,0.180664 -0.7519531,0.180664 -0.3450541,0 -0.668947,-0.08301 -0.9716797,-0.249023 C 3.6033518,24.700358 3.3754874,24.492025 3.2192383,24.244629 3.0629877,23.997234 2.9653316,23.738445 2.9262695,23.468262 2.8872067,23.194826 2.8676754,22.786298 2.8676758,22.242676 l 0,-2.348633 c -4e-7,-0.755203 0.04069,-1.303705 0.1220703,-1.645508 0.08138,-0.34179 0.3141268,-0.654289 0.6982422,-0.9375 0.3873682,-0.28645 0.8870422,-0.429679 1.4990234,-0.429687 0.6022103,8e-6 1.1018843,0.123706 1.4990235,0.371093 0.3971308,0.247404 0.6559196,0.542 0.7763671,0.883789 0.1204377,0.338549 0.180659,0.831712 0.1806641,1.479493 l 0,0.341797"
         id="path3009"
         inkscape:connector-curvature="0" /><path
         d="m 13.106934,17.047363 0,5.283203 c -5e-6,0.598961 -0.01954,1.02051 -0.05859,1.264649 -0.03907,0.240886 -0.154627,0.48991 -0.34668,0.74707 -0.192062,0.253907 -0.445968,0.447591 -0.761719,0.581055 -0.312503,0.130208 -0.681969,0.195312 -1.108398,0.195312 -0.472008,0 -0.8886738,-0.07813 -1.25,-0.234375 C 9.2202136,24.728028 8.9500316,24.524577 8.7709961,24.273926 8.5919591,24.023276 8.4861649,23.759604 8.4536133,23.48291 8.4210608,23.202964 8.4047848,22.617027 8.4047852,21.725098 l 0,-4.677735 2.0556638,0 0,5.927735 c -2e-6,0.345053 0.0179,0.566407 0.05371,0.664062 0.03906,0.0944 0.115557,0.141603 0.229492,0.141602 0.130206,1e-6 0.213214,-0.05208 0.249024,-0.15625 0.03906,-0.107421 0.05859,-0.358072 0.05859,-0.751953 l 0,-5.825196 2.055664,0"
         id="path3011"
         inkscape:connector-curvature="0" /><path
         d="m 17.452637,17.047363 1.176758,7.905274 -2.104493,0 -0.102539,-1.420899 -0.737304,0 -0.122071,1.420899 -2.128906,0 1.044922,-7.905274 2.973633,0 m -1.088867,5.083008 c -0.10417,-0.895178 -0.208336,-2.000321 -0.3125,-3.31543 -0.208336,1.510422 -0.338544,2.615564 -0.390625,3.31543 l 0.703125,0"
         id="path3013"
         inkscape:connector-curvature="0" /><path
         d="m 18.980957,17.047363 1.455078,0 c 0.970049,8e-6 1.625973,0.03744 1.967774,0.112305 0.345047,0.07488 0.624995,0.266935 0.839843,0.576172 0.218094,0.305996 0.327144,0.795905 0.327149,1.469726 -5e-6,0.61524 -0.0765,1.028651 -0.229492,1.240235 -0.153,0.211593 -0.454106,0.338546 -0.903321,0.380859 0.406897,0.100916 0.680334,0.236007 0.820313,0.405274 0.139969,0.169274 0.226232,0.325524 0.258789,0.46875 0.0358,0.139977 0.05371,0.528974 0.05371,1.166992 l 0,2.084961 -1.90918,0 0,-2.626953 c -3e-6,-0.423174 -0.03418,-0.685218 -0.102539,-0.786133 -0.06511,-0.100908 -0.239261,-0.151364 -0.522461,-0.151367 l 0,3.564453 -2.055664,0 0,-7.905274 m 2.055664,1.352539 0,1.757813 c 0.231117,5e-6 0.39225,-0.03092 0.483399,-0.09277 0.0944,-0.0651 0.141598,-0.271804 0.141601,-0.620117 l 0,-0.43457 c -3e-6,-0.250645 -0.04558,-0.415033 -0.136719,-0.493164 -0.08789,-0.07812 -0.250653,-0.117181 -0.488281,-0.117188"
         id="path3015"
         inkscape:connector-curvature="0" /><path
         d="m 24.371582,17.047363 1.538086,0 c 0.992836,8e-6 1.663408,0.04558 2.011719,0.136719 0.351558,0.09115 0.618485,0.240893 0.800781,0.449219 0.182287,0.20834 0.296219,0.441087 0.341797,0.698242 0.04557,0.253913 0.06835,0.755214 0.06836,1.503906 l 0,2.768555 c -5e-6,0.709637 -0.03419,1.184897 -0.102539,1.425781 -0.06511,0.237631 -0.180669,0.424805 -0.34668,0.561524 -0.16602,0.133463 -0.371098,0.227864 -0.615234,0.283203 -0.244144,0.05208 -0.611983,0.07813 -1.103516,0.07813 l -2.592773,0 0,-7.905274 m 2.055664,1.352539 0,5.200196 c 0.296221,1e-6 0.478513,-0.05859 0.546875,-0.175782 0.06836,-0.120441 0.102536,-0.444334 0.102539,-0.971679 l 0,-3.071289 c -3e-6,-0.358067 -0.0114,-0.587559 -0.03418,-0.688477 -0.02279,-0.100905 -0.07487,-0.174147 -0.15625,-0.219726 -0.08138,-0.04882 -0.234377,-0.07324 -0.458984,-0.07324"
         id="path3017"
         inkscape:connector-curvature="0" /></g></clipPath><clipPath
     clipPathUnits="userSpaceOnUse"
     id="clipPath3085"><g
       style="font-size:10px;font-style:normal;font-variant:normal;font-weight:normal;font-stretch:condensed;text-align:center;line-height:100%;letter-spacing:0px;word-spacing:0px;writing-mode:lr-tb;text-anchor:middle;fill:#ffffff;fill-opacity:1;stroke:none;font-family:Impact;-inkscape-font-specification:Impact Condensed"
       id="g3087"
       transform="matrix(-0.74961511,0,0,0.74961511,28.238292,-1.5465427)"><path
         d="m 8.4731445,7.0473633 2.0703125,0 c 0.559893,7.9e-6 0.98958,0.043953 1.289063,0.1318359 0.30273,0.087898 0.528967,0.2148513 0.67871,0.3808594 0.152991,0.1660228 0.25553,0.3678456 0.307618,0.6054687 0.05533,0.2343816 0.083,0.5989646 0.08301,1.09375 l 0,0.6884766 c -4e-6,0.5045621 -0.05209,0.8724001 -0.15625,1.1035161 -0.104171,0.231123 -0.296228,0.408532 -0.576171,0.532226 -0.276697,0.123701 -0.639652,0.18555 -1.088868,0.185547 l -0.551757,0 0,3.183594 -2.0556645,0 0,-7.9052737 m 2.0556645,1.352539 0,2.0117187 c 0.05859,0.0033 0.109046,0.0049 0.151367,0.0049 0.188799,4e-6 0.319007,-0.04557 0.390625,-0.136719 0.07487,-0.0944 0.112301,-0.2880808 0.112304,-0.5810545 l 0,-0.6494141 c -3e-6,-0.2701761 -0.04232,-0.4459572 -0.126953,-0.5273437 -0.08464,-0.081374 -0.260419,-0.1220638 -0.527343,-0.1220704"
         id="path3089"
         inkscape:connector-curvature="0" /><path
         d="m 13.492676,7.0473633 1.455078,0 c 0.970049,7.9e-6 1.625973,0.037443 1.967773,0.1123047 0.345048,0.074878 0.624996,0.2669346 0.839844,0.5761718 0.218094,0.3059965 0.327144,0.7959049 0.327149,1.4697266 -5e-6,0.6152395 -0.0765,1.0286506 -0.229493,1.2402346 -0.152999,0.211593 -0.454106,0.338546 -0.90332,0.380859 0.406897,0.100916 0.680334,0.236007 0.820313,0.405274 0.139969,0.169274 0.226232,0.325524 0.258789,0.46875 0.0358,0.139977 0.05371,0.528974 0.05371,1.166992 l 0,2.084961 -1.90918,0 0,-2.626953 c -3e-6,-0.423174 -0.03418,-0.685218 -0.102539,-0.786133 -0.06511,-0.100908 -0.239261,-0.151364 -0.522461,-0.151367 l 0,3.564453 -2.055664,0 0,-7.9052737 m 2.055664,1.352539 0,1.7578127 c 0.231117,5e-6 0.39225,-0.03092 0.483398,-0.09277 0.0944,-0.065099 0.141599,-0.2718043 0.141602,-0.6201168 l 0,-0.4345703 C 16.173336,8.7596131 16.127759,8.5952252 16.03662,8.5170938 15.94873,8.4389758 15.785966,8.3999129 15.548339,8.3999063"
         id="path3091"
         inkscape:connector-curvature="0" /><path
         d="m 23.580566,11.67627 c -5e-6,0.794273 -0.01954,1.357423 -0.05859,1.689453 -0.03581,0.328777 -0.153,0.629883 -0.351563,0.90332 -0.195317,0.273438 -0.460616,0.483399 -0.795898,0.629883 -0.33529,0.146484 -0.725915,0.219726 -1.171875,0.219726 -0.42318,0 -0.804039,-0.06836 -1.142578,-0.205078 -0.335288,-0.139974 -0.60547,-0.348307 -0.810547,-0.625 -0.205079,-0.276692 -0.327149,-0.577798 -0.366211,-0.90332 -0.03906,-0.325519 -0.05859,-0.89518 -0.05859,-1.708984 l 0,-1.35254 c 0,-0.7942649 0.0179,-1.3557878 0.05371,-1.6845698 0.03906,-0.3320246 0.156249,-0.6347587 0.351562,-0.9082032 0.198567,-0.27343 0.465494,-0.4833907 0.800782,-0.6298828 0.335284,-0.1464764 0.725909,-0.2197185 1.171875,-0.2197265 0.423174,8e-6 0.802405,0.069995 1.137695,0.2099609 0.338537,0.1367265 0.610347,0.343432 0.81543,0.6201172 0.205073,0.2766997 0.327143,0.5778061 0.366211,0.9033203 0.03906,0.3255268 0.05859,0.8951877 0.05859,1.7089839 l 0,1.35254 M 21.524902,9.0786133 c -3e-6,-0.3678323 -0.02116,-0.6022071 -0.06348,-0.703125 -0.03907,-0.10416 -0.122073,-0.1562433 -0.249024,-0.15625 -0.107424,6.7e-6 -0.190432,0.042324 -0.249023,0.1269531 -0.05534,0.081387 -0.08301,0.3255271 -0.08301,0.7324219 l 0,3.6914067 c -2e-6,0.458986 0.0179,0.742188 0.05371,0.849609 0.03906,0.107423 0.126951,0.161134 0.263672,0.161133 0.139971,1e-6 0.229489,-0.06185 0.268555,-0.185547 0.03906,-0.123697 0.05859,-0.418293 0.05859,-0.883789 l 0,-3.6328127"
         id="path3093"
         inkscape:connector-curvature="0" /><path
         d="m 7.6430664,19.95752 -2.0556641,0 0,-0.717774 c -3e-6,-0.452468 -0.019534,-0.735671 -0.058594,-0.849609 -0.039065,-0.113926 -0.1318388,-0.170892 -0.2783203,-0.170899 -0.1269558,7e-6 -0.2132187,0.04884 -0.2587891,0.146485 -0.045575,0.09766 -0.068362,0.348313 -0.068359,0.751953 l 0,3.793945 c -2.4e-6,0.354819 0.022784,0.589194 0.068359,0.703125 0.04557,0.110678 0.1367162,0.166017 0.2734375,0.166016 0.1497367,1e-6 0.2506481,-0.06348 0.3027344,-0.19043 0.055335,-0.126952 0.083005,-0.374347 0.083008,-0.742187 l 0,-0.9375 -0.4150391,0 0,-1.201172 2.4072266,0 0,4.243164 -1.2939453,0 -0.1904297,-0.566407 c -0.1399775,0.244141 -0.3173861,0.428061 -0.5322266,0.551758 -0.2115914,0.120443 -0.4622422,0.180664 -0.7519531,0.180664 -0.3450541,0 -0.668947,-0.08301 -0.9716797,-0.249023 C 3.6033518,24.700358 3.3754874,24.492025 3.2192383,24.244629 3.0629877,23.997234 2.9653316,23.738445 2.9262695,23.468262 2.8872067,23.194826 2.8676754,22.786298 2.8676758,22.242676 l 0,-2.348633 c -4e-7,-0.755203 0.04069,-1.303705 0.1220703,-1.645508 0.08138,-0.34179 0.3141268,-0.654289 0.6982422,-0.9375 0.3873682,-0.28645 0.8870422,-0.429679 1.4990234,-0.429687 0.6022103,8e-6 1.1018843,0.123706 1.4990235,0.371093 0.3971308,0.247404 0.6559196,0.542 0.7763671,0.883789 0.1204377,0.338549 0.180659,0.831712 0.1806641,1.479493 l 0,0.341797"
         id="path3095"
         inkscape:connector-curvature="0" /><path
         d="m 13.106934,17.047363 0,5.283203 c -5e-6,0.598961 -0.01954,1.02051 -0.05859,1.264649 -0.03907,0.240886 -0.154627,0.48991 -0.34668,0.74707 -0.192062,0.253907 -0.445968,0.447591 -0.761719,0.581055 -0.312503,0.130208 -0.681969,0.195312 -1.108398,0.195312 -0.472008,0 -0.8886738,-0.07813 -1.25,-0.234375 C 9.2202136,24.728028 8.9500316,24.524577 8.7709961,24.273926 8.5919591,24.023276 8.4861649,23.759604 8.4536133,23.48291 8.4210608,23.202964 8.4047848,22.617027 8.4047852,21.725098 l 0,-4.677735 2.0556638,0 0,5.927735 c -2e-6,0.345053 0.0179,0.566407 0.05371,0.664062 0.03906,0.0944 0.115557,0.141603 0.229492,0.141602 0.130206,1e-6 0.213214,-0.05208 0.249024,-0.15625 0.03906,-0.107421 0.05859,-0.358072 0.05859,-0.751953 l 0,-5.825196 2.055664,0"
         id="path3097"
         inkscape:connector-curvature="0" /><path
         d="m 17.452637,17.047363 1.176758,7.905274 -2.104493,0 -0.102539,-1.420899 -0.737304,0 -0.122071,1.420899 -2.128906,0 1.044922,-7.905274 2.973633,0 m -1.088867,5.083008 c -0.10417,-0.895178 -0.208336,-2.000321 -0.3125,-3.31543 -0.208336,1.510422 -0.338544,2.615564 -0.390625,3.31543 l 0.703125,0"
         id="path3099"
         inkscape:connector-curvature="0" /><path
         d="m 18.980957,17.047363 1.455078,0 c 0.970049,8e-6 1.625973,0.03744 1.967774,0.112305 0.345047,0.07488 0.624995,0.266935 0.839843,0.576172 0.218094,0.305996 0.327144,0.795905 0.327149,1.469726 -5e-6,0.61524 -0.0765,1.028651 -0.229492,1.240235 -0.153,0.211593 -0.454106,0.338546 -0.903321,0.380859 0.406897,0.100916 0.680334,0.236007 0.820313,0.405274 0.139969,0.169274 0.226232,0.325524 0.258789,0.46875 0.0358,0.139977 0.05371,0.528974 0.05371,1.166992 l 0,2.084961 -1.90918,0 0,-2.626953 c -3e-6,-0.423174 -0.03418,-0.685218 -0.102539,-0.786133 -0.06511,-0.100908 -0.239261,-0.151364 -0.522461,-0.151367 l 0,3.564453 -2.055664,0 0,-7.905274 m 2.055664,1.352539 0,1.757813 c 0.231117,5e-6 0.39225,-0.03092 0.483399,-0.09277 0.0944,-0.0651 0.141598,-0.271804 0.141601,-0.620117 l 0,-0.43457 c -3e-6,-0.250645 -0.04558,-0.415033 -0.136719,-0.493164 -0.08789,-0.07812 -0.250653,-0.117181 -0.488281,-0.117188"
         id="path3101"
         inkscape:connector-curvature="0" /><path
         d="m 24.371582,17.047363 1.538086,0 c 0.992836,8e-6 1.663408,0.04558 2.011719,0.136719 0.351558,0.09115 0.618485,0.240893 0.800781,0.449219 0.182287,0.20834 0.296219,0.441087 0.341797,0.698242 0.04557,0.253913 0.06835,0.755214 0.06836,1.503906 l 0,2.768555 c -5e-6,0.709637 -0.03419,1.184897 -0.102539,1.425781 -0.06511,0.237631 -0.180669,0.424805 -0.34668,0.561524 -0.16602,0.133463 -0.371098,0.227864 -0.615234,0.283203 -0.244144,0.05208 -0.611983,0.07813 -1.103516,0.07813 l -2.592773,0 0,-7.905274 m 2.055664,1.352539 0,5.200196 c 0.296221,1e-6 0.478513,-0.05859 0.546875,-0.175782 0.06836,-0.120441 0.102536,-0.444334 0.102539,-0.971679 l 0,-3.071289 c -3e-6,-0.358067 -0.0114,-0.587559 -0.03418,-0.688477 -0.02279,-0.100905 -0.07487,-0.174147 -0.15625,-0.219726 -0.08138,-0.04882 -0.234377,-0.07324 -0.458984,-0.07324"
         id="path3103"
         inkscape:connector-curvature="0" /></g></clipPath><clipPath
     clipPathUnits="userSpaceOnUse"
     id="clipPath3176"><g
       style="font-size:10px;font-style:normal;font-variant:normal;font-weight:normal;font-stretch:condensed;text-align:center;line-height:100%;letter-spacing:0px;word-spacing:0px;writing-mode:lr-tb;text-anchor:middle;fill:#ffffff;fill-opacity:1;stroke:none;font-family:Impact;-inkscape-font-specification:Impact Condensed"
       id="g3178"
       transform="matrix(0.74961511,0,0,0.74961511,3.9366582,-1.8048473)"><path
         d="m 8.4731445,7.0473633 2.0703125,0 c 0.559893,7.9e-6 0.98958,0.043953 1.289063,0.1318359 0.30273,0.087898 0.528967,0.2148513 0.67871,0.3808594 0.152991,0.1660228 0.25553,0.3678456 0.307618,0.6054687 0.05533,0.2343816 0.083,0.5989646 0.08301,1.09375 l 0,0.6884766 c -4e-6,0.5045621 -0.05209,0.8724001 -0.15625,1.1035161 -0.104171,0.231123 -0.296228,0.408532 -0.576171,0.532226 -0.276697,0.123701 -0.639652,0.18555 -1.088868,0.185547 l -0.551757,0 0,3.183594 -2.0556645,0 0,-7.9052737 m 2.0556645,1.352539 0,2.0117187 c 0.05859,0.0033 0.109046,0.0049 0.151367,0.0049 0.188799,4e-6 0.319007,-0.04557 0.390625,-0.136719 0.07487,-0.0944 0.112301,-0.2880808 0.112304,-0.5810545 l 0,-0.6494141 c -3e-6,-0.2701761 -0.04232,-0.4459572 -0.126953,-0.5273437 -0.08464,-0.081374 -0.260419,-0.1220638 -0.527343,-0.1220704"
         id="path3180"
         inkscape:connector-curvature="0" /><path
         d="m 13.492676,7.0473633 1.455078,0 c 0.970049,7.9e-6 1.625973,0.037443 1.967773,0.1123047 0.345048,0.074878 0.624996,0.2669346 0.839844,0.5761718 0.218094,0.3059965 0.327144,0.7959049 0.327149,1.4697266 -5e-6,0.6152395 -0.0765,1.0286506 -0.229493,1.2402346 -0.152999,0.211593 -0.454106,0.338546 -0.90332,0.380859 0.406897,0.100916 0.680334,0.236007 0.820313,0.405274 0.139969,0.169274 0.226232,0.325524 0.258789,0.46875 0.0358,0.139977 0.05371,0.528974 0.05371,1.166992 l 0,2.084961 -1.90918,0 0,-2.626953 c -3e-6,-0.423174 -0.03418,-0.685218 -0.102539,-0.786133 -0.06511,-0.100908 -0.239261,-0.151364 -0.522461,-0.151367 l 0,3.564453 -2.055664,0 0,-7.9052737 m 2.055664,1.352539 0,1.7578127 c 0.231117,5e-6 0.39225,-0.03092 0.483398,-0.09277 0.0944,-0.065099 0.141599,-0.2718043 0.141602,-0.6201168 l 0,-0.4345703 C 16.173336,8.7596131 16.127759,8.5952252 16.03662,8.5170938 15.94873,8.4389758 15.785966,8.3999129 15.548339,8.3999063"
         id="path3182"
         inkscape:connector-curvature="0" /><path
         d="m 23.580566,11.67627 c -5e-6,0.794273 -0.01954,1.357423 -0.05859,1.689453 -0.03581,0.328777 -0.153,0.629883 -0.351563,0.90332 -0.195317,0.273438 -0.460616,0.483399 -0.795898,0.629883 -0.33529,0.146484 -0.725915,0.219726 -1.171875,0.219726 -0.42318,0 -0.804039,-0.06836 -1.142578,-0.205078 -0.335288,-0.139974 -0.60547,-0.348307 -0.810547,-0.625 -0.205079,-0.276692 -0.327149,-0.577798 -0.366211,-0.90332 -0.03906,-0.325519 -0.05859,-0.89518 -0.05859,-1.708984 l 0,-1.35254 c 0,-0.7942649 0.0179,-1.3557878 0.05371,-1.6845698 0.03906,-0.3320246 0.156249,-0.6347587 0.351562,-0.9082032 0.198567,-0.27343 0.465494,-0.4833907 0.800782,-0.6298828 0.335284,-0.1464764 0.725909,-0.2197185 1.171875,-0.2197265 0.423174,8e-6 0.802405,0.069995 1.137695,0.2099609 0.338537,0.1367265 0.610347,0.343432 0.81543,0.6201172 0.205073,0.2766997 0.327143,0.5778061 0.366211,0.9033203 0.03906,0.3255268 0.05859,0.8951877 0.05859,1.7089839 l 0,1.35254 M 21.524902,9.0786133 c -3e-6,-0.3678323 -0.02116,-0.6022071 -0.06348,-0.703125 -0.03907,-0.10416 -0.122073,-0.1562433 -0.249024,-0.15625 -0.107424,6.7e-6 -0.190432,0.042324 -0.249023,0.1269531 -0.05534,0.081387 -0.08301,0.3255271 -0.08301,0.7324219 l 0,3.6914067 c -2e-6,0.458986 0.0179,0.742188 0.05371,0.849609 0.03906,0.107423 0.126951,0.161134 0.263672,0.161133 0.139971,1e-6 0.229489,-0.06185 0.268555,-0.185547 0.03906,-0.123697 0.05859,-0.418293 0.05859,-0.883789 l 0,-3.6328127"
         id="path3184"
         inkscape:connector-curvature="0" /><path
         d="m 7.6430664,19.95752 -2.0556641,0 0,-0.717774 c -3e-6,-0.452468 -0.019534,-0.735671 -0.058594,-0.849609 -0.039065,-0.113926 -0.1318388,-0.170892 -0.2783203,-0.170899 -0.1269558,7e-6 -0.2132187,0.04884 -0.2587891,0.146485 -0.045575,0.09766 -0.068362,0.348313 -0.068359,0.751953 l 0,3.793945 c -2.4e-6,0.354819 0.022784,0.589194 0.068359,0.703125 0.04557,0.110678 0.1367162,0.166017 0.2734375,0.166016 0.1497367,1e-6 0.2506481,-0.06348 0.3027344,-0.19043 0.055335,-0.126952 0.083005,-0.374347 0.083008,-0.742187 l 0,-0.9375 -0.4150391,0 0,-1.201172 2.4072266,0 0,4.243164 -1.2939453,0 -0.1904297,-0.566407 c -0.1399775,0.244141 -0.3173861,0.428061 -0.5322266,0.551758 -0.2115914,0.120443 -0.4622422,0.180664 -0.7519531,0.180664 -0.3450541,0 -0.668947,-0.08301 -0.9716797,-0.249023 C 3.6033518,24.700358 3.3754874,24.492025 3.2192383,24.244629 3.0629877,23.997234 2.9653316,23.738445 2.9262695,23.468262 2.8872067,23.194826 2.8676754,22.786298 2.8676758,22.242676 l 0,-2.348633 c -4e-7,-0.755203 0.04069,-1.303705 0.1220703,-1.645508 0.08138,-0.34179 0.3141268,-0.654289 0.6982422,-0.9375 0.3873682,-0.28645 0.8870422,-0.429679 1.4990234,-0.429687 0.6022103,8e-6 1.1018843,0.123706 1.4990235,0.371093 0.3971308,0.247404 0.6559196,0.542 0.7763671,0.883789 0.1204377,0.338549 0.180659,0.831712 0.1806641,1.479493 l 0,0.341797"
         id="path3186"
         inkscape:connector-curvature="0" /><path
         d="m 13.106934,17.047363 0,5.283203 c -5e-6,0.598961 -0.01954,1.02051 -0.05859,1.264649 -0.03907,0.240886 -0.154627,0.48991 -0.34668,0.74707 -0.192062,0.253907 -0.445968,0.447591 -0.761719,0.581055 -0.312503,0.130208 -0.681969,0.195312 -1.108398,0.195312 -0.472008,0 -0.8886738,-0.07813 -1.25,-0.234375 C 9.2202136,24.728028 8.9500316,24.524577 8.7709961,24.273926 8.5919591,24.023276 8.4861649,23.759604 8.4536133,23.48291 8.4210608,23.202964 8.4047848,22.617027 8.4047852,21.725098 l 0,-4.677735 2.0556638,0 0,5.927735 c -2e-6,0.345053 0.0179,0.566407 0.05371,0.664062 0.03906,0.0944 0.115557,0.141603 0.229492,0.141602 0.130206,1e-6 0.213214,-0.05208 0.249024,-0.15625 0.03906,-0.107421 0.05859,-0.358072 0.05859,-0.751953 l 0,-5.825196 2.055664,0"
         id="path3188"
         inkscape:connector-curvature="0" /><path
         d="m 17.452637,17.047363 1.176758,7.905274 -2.104493,0 -0.102539,-1.420899 -0.737304,0 -0.122071,1.420899 -2.128906,0 1.044922,-7.905274 2.973633,0 m -1.088867,5.083008 c -0.10417,-0.895178 -0.208336,-2.000321 -0.3125,-3.31543 -0.208336,1.510422 -0.338544,2.615564 -0.390625,3.31543 l 0.703125,0"
         id="path3190"
         inkscape:connector-curvature="0" /><path
         d="m 18.980957,17.047363 1.455078,0 c 0.970049,8e-6 1.625973,0.03744 1.967774,0.112305 0.345047,0.07488 0.624995,0.266935 0.839843,0.576172 0.218094,0.305996 0.327144,0.795905 0.327149,1.469726 -5e-6,0.61524 -0.0765,1.028651 -0.229492,1.240235 -0.153,0.211593 -0.454106,0.338546 -0.903321,0.380859 0.406897,0.100916 0.680334,0.236007 0.820313,0.405274 0.139969,0.169274 0.226232,0.325524 0.258789,0.46875 0.0358,0.139977 0.05371,0.528974 0.05371,1.166992 l 0,2.084961 -1.90918,0 0,-2.626953 c -3e-6,-0.423174 -0.03418,-0.685218 -0.102539,-0.786133 -0.06511,-0.100908 -0.239261,-0.151364 -0.522461,-0.151367 l 0,3.564453 -2.055664,0 0,-7.905274 m 2.055664,1.352539 0,1.757813 c 0.231117,5e-6 0.39225,-0.03092 0.483399,-0.09277 0.0944,-0.0651 0.141598,-0.271804 0.141601,-0.620117 l 0,-0.43457 c -3e-6,-0.250645 -0.04558,-0.415033 -0.136719,-0.493164 -0.08789,-0.07812 -0.250653,-0.117181 -0.488281,-0.117188"
         id="path3192"
         inkscape:connector-curvature="0" /><path
         d="m 24.371582,17.047363 1.538086,0 c 0.992836,8e-6 1.663408,0.04558 2.011719,0.136719 0.351558,0.09115 0.618485,0.240893 0.800781,0.449219 0.182287,0.20834 0.296219,0.441087 0.341797,0.698242 0.04557,0.253913 0.06835,0.755214 0.06836,1.503906 l 0,2.768555 c -5e-6,0.709637 -0.03419,1.184897 -0.102539,1.425781 -0.06511,0.237631 -0.180669,0.424805 -0.34668,0.561524 -0.16602,0.133463 -0.371098,0.227864 -0.615234,0.283203 -0.244144,0.05208 -0.611983,0.07813 -1.103516,0.07813 l -2.592773,0 0,-7.905274 m 2.055664,1.352539 0,5.200196 c 0.296221,1e-6 0.478513,-0.05859 0.546875,-0.175782 0.06836,-0.120441 0.102536,-0.444334 0.102539,-0.971679 l 0,-3.071289 c -3e-6,-0.358067 -0.0114,-0.587559 -0.03418,-0.688477 -0.02279,-0.100905 -0.07487,-0.174147 -0.15625,-0.219726 -0.08138,-0.04882 -0.234377,-0.07324 -0.458984,-0.07324"
         id="path3194"
         inkscape:connector-curvature="0" /></g></clipPath><clipPath
     clipPathUnits="userSpaceOnUse"
     id="clipPath3265"><g
       style="font-size:10px;font-style:normal;font-variant:normal;font-weight:normal;font-stretch:condensed;text-align:center;line-height:100%;letter-spacing:0px;word-spacing:0px;writing-mode:lr-tb;text-anchor:middle;fill:#ffffff;fill-opacity:1;stroke:none;font-family:Impact;-inkscape-font-specification:Impact Condensed"
       id="g3267"
       transform="matrix(-0.74961511,0,0,0.74961511,28.064773,-1.8043151)"><path
         d="m 8.4731445,7.0473633 2.0703125,0 c 0.559893,7.9e-6 0.98958,0.043953 1.289063,0.1318359 0.30273,0.087898 0.528967,0.2148513 0.67871,0.3808594 0.152991,0.1660228 0.25553,0.3678456 0.307618,0.6054687 0.05533,0.2343816 0.083,0.5989646 0.08301,1.09375 l 0,0.6884766 c -4e-6,0.5045621 -0.05209,0.8724001 -0.15625,1.1035161 -0.104171,0.231123 -0.296228,0.408532 -0.576171,0.532226 -0.276697,0.123701 -0.639652,0.18555 -1.088868,0.185547 l -0.551757,0 0,3.183594 -2.0556645,0 0,-7.9052737 m 2.0556645,1.352539 0,2.0117187 c 0.05859,0.0033 0.109046,0.0049 0.151367,0.0049 0.188799,4e-6 0.319007,-0.04557 0.390625,-0.136719 0.07487,-0.0944 0.112301,-0.2880808 0.112304,-0.5810545 l 0,-0.6494141 c -3e-6,-0.2701761 -0.04232,-0.4459572 -0.126953,-0.5273437 -0.08464,-0.081374 -0.260419,-0.1220638 -0.527343,-0.1220704"
         id="path3269"
         inkscape:connector-curvature="0" /><path
         d="m 13.492676,7.0473633 1.455078,0 c 0.970049,7.9e-6 1.625973,0.037443 1.967773,0.1123047 0.345048,0.074878 0.624996,0.2669346 0.839844,0.5761718 0.218094,0.3059965 0.327144,0.7959049 0.327149,1.4697266 -5e-6,0.6152395 -0.0765,1.0286506 -0.229493,1.2402346 -0.152999,0.211593 -0.454106,0.338546 -0.90332,0.380859 0.406897,0.100916 0.680334,0.236007 0.820313,0.405274 0.139969,0.169274 0.226232,0.325524 0.258789,0.46875 0.0358,0.139977 0.05371,0.528974 0.05371,1.166992 l 0,2.084961 -1.90918,0 0,-2.626953 c -3e-6,-0.423174 -0.03418,-0.685218 -0.102539,-0.786133 -0.06511,-0.100908 -0.239261,-0.151364 -0.522461,-0.151367 l 0,3.564453 -2.055664,0 0,-7.9052737 m 2.055664,1.352539 0,1.7578127 c 0.231117,5e-6 0.39225,-0.03092 0.483398,-0.09277 0.0944,-0.065099 0.141599,-0.2718043 0.141602,-0.6201168 l 0,-0.4345703 C 16.173336,8.7596131 16.127759,8.5952252 16.03662,8.5170938 15.94873,8.4389758 15.785966,8.3999129 15.548339,8.3999063"
         id="path3271"
         inkscape:connector-curvature="0" /><path
         d="m 23.580566,11.67627 c -5e-6,0.794273 -0.01954,1.357423 -0.05859,1.689453 -0.03581,0.328777 -0.153,0.629883 -0.351563,0.90332 -0.195317,0.273438 -0.460616,0.483399 -0.795898,0.629883 -0.33529,0.146484 -0.725915,0.219726 -1.171875,0.219726 -0.42318,0 -0.804039,-0.06836 -1.142578,-0.205078 -0.335288,-0.139974 -0.60547,-0.348307 -0.810547,-0.625 -0.205079,-0.276692 -0.327149,-0.577798 -0.366211,-0.90332 -0.03906,-0.325519 -0.05859,-0.89518 -0.05859,-1.708984 l 0,-1.35254 c 0,-0.7942649 0.0179,-1.3557878 0.05371,-1.6845698 0.03906,-0.3320246 0.156249,-0.6347587 0.351562,-0.9082032 0.198567,-0.27343 0.465494,-0.4833907 0.800782,-0.6298828 0.335284,-0.1464764 0.725909,-0.2197185 1.171875,-0.2197265 0.423174,8e-6 0.802405,0.069995 1.137695,0.2099609 0.338537,0.1367265 0.610347,0.343432 0.81543,0.6201172 0.205073,0.2766997 0.327143,0.5778061 0.366211,0.9033203 0.03906,0.3255268 0.05859,0.8951877 0.05859,1.7089839 l 0,1.35254 M 21.524902,9.0786133 c -3e-6,-0.3678323 -0.02116,-0.6022071 -0.06348,-0.703125 -0.03907,-0.10416 -0.122073,-0.1562433 -0.249024,-0.15625 -0.107424,6.7e-6 -0.190432,0.042324 -0.249023,0.1269531 -0.05534,0.081387 -0.08301,0.3255271 -0.08301,0.7324219 l 0,3.6914067 c -2e-6,0.458986 0.0179,0.742188 0.05371,0.849609 0.03906,0.107423 0.126951,0.161134 0.263672,0.161133 0.139971,1e-6 0.229489,-0.06185 0.268555,-0.185547 0.03906,-0.123697 0.05859,-0.418293 0.05859,-0.883789 l 0,-3.6328127"
         id="path3273"
         inkscape:connector-curvature="0" /><path
         d="m 7.6430664,19.95752 -2.0556641,0 0,-0.717774 c -3e-6,-0.452468 -0.019534,-0.735671 -0.058594,-0.849609 -0.039065,-0.113926 -0.1318388,-0.170892 -0.2783203,-0.170899 -0.1269558,7e-6 -0.2132187,0.04884 -0.2587891,0.146485 -0.045575,0.09766 -0.068362,0.348313 -0.068359,0.751953 l 0,3.793945 c -2.4e-6,0.354819 0.022784,0.589194 0.068359,0.703125 0.04557,0.110678 0.1367162,0.166017 0.2734375,0.166016 0.1497367,1e-6 0.2506481,-0.06348 0.3027344,-0.19043 0.055335,-0.126952 0.083005,-0.374347 0.083008,-0.742187 l 0,-0.9375 -0.4150391,0 0,-1.201172 2.4072266,0 0,4.243164 -1.2939453,0 -0.1904297,-0.566407 c -0.1399775,0.244141 -0.3173861,0.428061 -0.5322266,0.551758 -0.2115914,0.120443 -0.4622422,0.180664 -0.7519531,0.180664 -0.3450541,0 -0.668947,-0.08301 -0.9716797,-0.249023 C 3.6033518,24.700358 3.3754874,24.492025 3.2192383,24.244629 3.0629877,23.997234 2.9653316,23.738445 2.9262695,23.468262 2.8872067,23.194826 2.8676754,22.786298 2.8676758,22.242676 l 0,-2.348633 c -4e-7,-0.755203 0.04069,-1.303705 0.1220703,-1.645508 0.08138,-0.34179 0.3141268,-0.654289 0.6982422,-0.9375 0.3873682,-0.28645 0.8870422,-0.429679 1.4990234,-0.429687 0.6022103,8e-6 1.1018843,0.123706 1.4990235,0.371093 0.3971308,0.247404 0.6559196,0.542 0.7763671,0.883789 0.1204377,0.338549 0.180659,0.831712 0.1806641,1.479493 l 0,0.341797"
         id="path3275"
         inkscape:connector-curvature="0" /><path
         d="m 13.106934,17.047363 0,5.283203 c -5e-6,0.598961 -0.01954,1.02051 -0.05859,1.264649 -0.03907,0.240886 -0.154627,0.48991 -0.34668,0.74707 -0.192062,0.253907 -0.445968,0.447591 -0.761719,0.581055 -0.312503,0.130208 -0.681969,0.195312 -1.108398,0.195312 -0.472008,0 -0.8886738,-0.07813 -1.25,-0.234375 C 9.2202136,24.728028 8.9500316,24.524577 8.7709961,24.273926 8.5919591,24.023276 8.4861649,23.759604 8.4536133,23.48291 8.4210608,23.202964 8.4047848,22.617027 8.4047852,21.725098 l 0,-4.677735 2.0556638,0 0,5.927735 c -2e-6,0.345053 0.0179,0.566407 0.05371,0.664062 0.03906,0.0944 0.115557,0.141603 0.229492,0.141602 0.130206,1e-6 0.213214,-0.05208 0.249024,-0.15625 0.03906,-0.107421 0.05859,-0.358072 0.05859,-0.751953 l 0,-5.825196 2.055664,0"
         id="path3277"
         inkscape:connector-curvature="0" /><path
         d="m 17.452637,17.047363 1.176758,7.905274 -2.104493,0 -0.102539,-1.420899 -0.737304,0 -0.122071,1.420899 -2.128906,0 1.044922,-7.905274 2.973633,0 m -1.088867,5.083008 c -0.10417,-0.895178 -0.208336,-2.000321 -0.3125,-3.31543 -0.208336,1.510422 -0.338544,2.615564 -0.390625,3.31543 l 0.703125,0"
         id="path3279"
         inkscape:connector-curvature="0" /><path
         d="m 18.980957,17.047363 1.455078,0 c 0.970049,8e-6 1.625973,0.03744 1.967774,0.112305 0.345047,0.07488 0.624995,0.266935 0.839843,0.576172 0.218094,0.305996 0.327144,0.795905 0.327149,1.469726 -5e-6,0.61524 -0.0765,1.028651 -0.229492,1.240235 -0.153,0.211593 -0.454106,0.338546 -0.903321,0.380859 0.406897,0.100916 0.680334,0.236007 0.820313,0.405274 0.139969,0.169274 0.226232,0.325524 0.258789,0.46875 0.0358,0.139977 0.05371,0.528974 0.05371,1.166992 l 0,2.084961 -1.90918,0 0,-2.626953 c -3e-6,-0.423174 -0.03418,-0.685218 -0.102539,-0.786133 -0.06511,-0.100908 -0.239261,-0.151364 -0.522461,-0.151367 l 0,3.564453 -2.055664,0 0,-7.905274 m 2.055664,1.352539 0,1.757813 c 0.231117,5e-6 0.39225,-0.03092 0.483399,-0.09277 0.0944,-0.0651 0.141598,-0.271804 0.141601,-0.620117 l 0,-0.43457 c -3e-6,-0.250645 -0.04558,-0.415033 -0.136719,-0.493164 -0.08789,-0.07812 -0.250653,-0.117181 -0.488281,-0.117188"
         id="path3281"
         inkscape:connector-curvature="0" /><path
         d="m 24.371582,17.047363 1.538086,0 c 0.992836,8e-6 1.663408,0.04558 2.011719,0.136719 0.351558,0.09115 0.618485,0.240893 0.800781,0.449219 0.182287,0.20834 0.296219,0.441087 0.341797,0.698242 0.04557,0.253913 0.06835,0.755214 0.06836,1.503906 l 0,2.768555 c -5e-6,0.709637 -0.03419,1.184897 -0.102539,1.425781 -0.06511,0.237631 -0.180669,0.424805 -0.34668,0.561524 -0.16602,0.133463 -0.371098,0.227864 -0.615234,0.283203 -0.244144,0.05208 -0.611983,0.07813 -1.103516,0.07813 l -2.592773,0 0,-7.905274 m 2.055664,1.352539 0,5.200196 c 0.296221,1e-6 0.478513,-0.05859 0.546875,-0.175782 0.06836,-0.120441 0.102536,-0.444334 0.102539,-0.971679 l 0,-3.071289 c -3e-6,-0.358067 -0.0114,-0.587559 -0.03418,-0.688477 -0.02279,-0.100905 -0.07487,-0.174147 -0.15625,-0.219726 -0.08138,-0.04882 -0.234377,-0.07324 -0.458984,-0.07324"
         id="path3283"
         inkscape:connector-curvature="0" /></g></clipPath></defs><sodipodi:namedview
   pagecolor="#ffffff"
   bordercolor="#666666"
   borderopacity="1"
   objecttolerance="10"
   gridtolerance="10"
   guidetolerance="10"
   inkscape:pageopacity="0"
   inkscape:pageshadow="2"
   inkscape:window-width="1855"
   inkscape:window-height="1176"
   id="namedview23"
   showgrid="false"
   inkscape:zoom="11.313709"
   inkscape:cx="-4.1173112"
   inkscape:cy="12.126302"
   inkscape:window-x="65"
   inkscape:window-y="24"
   inkscape:window-maximized="1"
   inkscape:current-layer="Layer_1" /><rect
   style="fill:#1a1a1a;fill-opacity:1;fill-rule:nonzero;stroke:none"
   id="rect4106"
   width="61.606678"
   height="36.946327"
   x="-65.142212"
   y="-5.3882713" /><polygon
   style="fill:#e44d26"
   id="polygon5"
   points="4.625,28.889 2,0 30.002,0 27.377,28.889 16.001,32 " /><polygon
   style="fill:#ff6c39"
   id="polygon7"
   points="25.232,27.008 27.688,2 16,2 16,29.75 " /><polygon
   style="fill:#ffffff"
   id="polygon9"
   points="19.503,17 19.148,20.984 16,21.99 12.857,20.984 12.648,19 8.803,19 9.262,23.987 16,25.99 22.728,23.986 23.718,13 12.252,13 12.002,10 24,10 24.363,6 7.607,6 8,10 8.619,17 "
   transform="translate(-67.745763,-5.5338983)" /><g
   id="g11" /><g
   id="g13" /><g
   id="g15" /><g
   id="g17" /><g
   id="g19" /><g
   id="g21" /><polygon
   points="16,29.75 25.232,27.008 27.688,2 16,2 "
   id="polygon3174"
   style="fill:#ff6c39;opacity:0"
   transform="matrix(-1,0,0,1,32.001431,-5.3222e-4)" /><g
   style="font-size:10px;font-style:normal;font-variant:normal;font-weight:normal;font-stretch:condensed;text-align:center;line-height:100%;letter-spacing:0px;word-spacing:0px;writing-mode:lr-tb;text-anchor:middle;fill:#ffffff;fill-opacity:1;stroke:none;font-family:Impact;-inkscape-font-specification:Impact Condensed"
   id="text3009"
   transform="matrix(0.74961511,0,0,0.74961511,3.9366582,-1.8048473)"><path
     d="m 8.4731445,7.0473633 2.0703125,0 c 0.559893,7.9e-6 0.98958,0.043953 1.289063,0.1318359 0.30273,0.087898 0.528967,0.2148513 0.67871,0.3808594 0.152991,0.1660228 0.25553,0.3678456 0.307618,0.6054687 0.05533,0.2343816 0.083,0.5989646 0.08301,1.09375 l 0,0.6884766 c -4e-6,0.5045621 -0.05209,0.8724001 -0.15625,1.1035161 -0.104171,0.231123 -0.296228,0.408532 -0.576171,0.532226 -0.276697,0.123701 -0.639652,0.18555 -1.088868,0.185547 l -0.551757,0 0,3.183594 -2.0556645,0 0,-7.9052737 m 2.0556645,1.352539 0,2.0117187 c 0.05859,0.0033 0.109046,0.0049 0.151367,0.0049 0.188799,4e-6 0.319007,-0.04557 0.390625,-0.136719 0.07487,-0.0944 0.112301,-0.2880808 0.112304,-0.5810545 l 0,-0.6494141 c -3e-6,-0.2701761 -0.04232,-0.4459572 -0.126953,-0.5273437 -0.08464,-0.081374 -0.260419,-0.1220638 -0.527343,-0.1220704"
     id="path3020"
     inkscape:connector-curvature="0" /><path
     d="m 13.492676,7.0473633 1.455078,0 c 0.970049,7.9e-6 1.625973,0.037443 1.967773,0.1123047 0.345048,0.074878 0.624996,0.2669346 0.839844,0.5761718 0.218094,0.3059965 0.327144,0.7959049 0.327149,1.4697266 -5e-6,0.6152395 -0.0765,1.0286506 -0.229493,1.2402346 -0.152999,0.211593 -0.454106,0.338546 -0.90332,0.380859 0.406897,0.100916 0.680334,0.236007 0.820313,0.405274 0.139969,0.169274 0.226232,0.325524 0.258789,0.46875 0.0358,0.139977 0.05371,0.528974 0.05371,1.166992 l 0,2.084961 -1.90918,0 0,-2.626953 c -3e-6,-0.423174 -0.03418,-0.685218 -0.102539,-0.786133 -0.06511,-0.100908 -0.239261,-0.151364 -0.522461,-0.151367 l 0,3.564453 -2.055664,0 0,-7.9052737 m 2.055664,1.352539 0,1.7578127 c 0.231117,5e-6 0.39225,-0.03092 0.483398,-0.09277 0.0944,-0.065099 0.141599,-0.2718043 0.141602,-0.6201168 l 0,-0.4345703 C 16.173336,8.7596131 16.127759,8.5952252 16.03662,8.5170938 15.94873,8.4389758 15.785966,8.3999129 15.548339,8.3999063"
     id="path3022"
     inkscape:connector-curvature="0" /><path
     d="m 23.580566,11.67627 c -5e-6,0.794273 -0.01954,1.357423 -0.05859,1.689453 -0.03581,0.328777 -0.153,0.629883 -0.351563,0.90332 -0.195317,0.273438 -0.460616,0.483399 -0.795898,0.629883 -0.33529,0.146484 -0.725915,0.219726 -1.171875,0.219726 -0.42318,0 -0.804039,-0.06836 -1.142578,-0.205078 -0.335288,-0.139974 -0.60547,-0.348307 -0.810547,-0.625 -0.205079,-0.276692 -0.327149,-0.577798 -0.366211,-0.90332 -0.03906,-0.325519 -0.05859,-0.89518 -0.05859,-1.708984 l 0,-1.35254 c 0,-0.7942649 0.0179,-1.3557878 0.05371,-1.6845698 0.03906,-0.3320246 0.156249,-0.6347587 0.351562,-0.9082032 0.198567,-0.27343 0.465494,-0.4833907 0.800782,-0.6298828 0.335284,-0.1464764 0.725909,-0.2197185 1.171875,-0.2197265 0.423174,8e-6 0.802405,0.069995 1.137695,0.2099609 0.338537,0.1367265 0.610347,0.343432 0.81543,0.6201172 0.205073,0.2766997 0.327143,0.5778061 0.366211,0.9033203 0.03906,0.3255268 0.05859,0.8951877 0.05859,1.7089839 l 0,1.35254 M 21.524902,9.0786133 c -3e-6,-0.3678323 -0.02116,-0.6022071 -0.06348,-0.703125 -0.03907,-0.10416 -0.122073,-0.1562433 -0.249024,-0.15625 -0.107424,6.7e-6 -0.190432,0.042324 -0.249023,0.1269531 -0.05534,0.081387 -0.08301,0.3255271 -0.08301,0.7324219 l 0,3.6914067 c -2e-6,0.458986 0.0179,0.742188 0.05371,0.849609 0.03906,0.107423 0.126951,0.161134 0.263672,0.161133 0.139971,1e-6 0.229489,-0.06185 0.268555,-0.185547 0.03906,-0.123697 0.05859,-0.418293 0.05859,-0.883789 l 0,-3.6328127"
     id="path3024"
     inkscape:connector-curvature="0" /><path
     d="m 7.6430664,19.95752 -2.0556641,0 0,-0.717774 c -3e-6,-0.452468 -0.019534,-0.735671 -0.058594,-0.849609 -0.039065,-0.113926 -0.1318388,-0.170892 -0.2783203,-0.170899 -0.1269558,7e-6 -0.2132187,0.04884 -0.2587891,0.146485 -0.045575,0.09766 -0.068362,0.348313 -0.068359,0.751953 l 0,3.793945 c -2.4e-6,0.354819 0.022784,0.589194 0.068359,0.703125 0.04557,0.110678 0.1367162,0.166017 0.2734375,0.166016 0.1497367,1e-6 0.2506481,-0.06348 0.3027344,-0.19043 0.055335,-0.126952 0.083005,-0.374347 0.083008,-0.742187 l 0,-0.9375 -0.4150391,0 0,-1.201172 2.4072266,0 0,4.243164 -1.2939453,0 -0.1904297,-0.566407 c -0.1399775,0.244141 -0.3173861,0.428061 -0.5322266,0.551758 -0.2115914,0.120443 -0.4622422,0.180664 -0.7519531,0.180664 -0.3450541,0 -0.668947,-0.08301 -0.9716797,-0.249023 C 3.6033518,24.700358 3.3754874,24.492025 3.2192383,24.244629 3.0629877,23.997234 2.9653316,23.738445 2.9262695,23.468262 2.8872067,23.194826 2.8676754,22.786298 2.8676758,22.242676 l 0,-2.348633 c -4e-7,-0.755203 0.04069,-1.303705 0.1220703,-1.645508 0.08138,-0.34179 0.3141268,-0.654289 0.6982422,-0.9375 0.3873682,-0.28645 0.8870422,-0.429679 1.4990234,-0.429687 0.6022103,8e-6 1.1018843,0.123706 1.4990235,0.371093 0.3971308,0.247404 0.6559196,0.542 0.7763671,0.883789 0.1204377,0.338549 0.180659,0.831712 0.1806641,1.479493 l 0,0.341797"
     id="path3026"
     inkscape:connector-curvature="0" /><path
     d="m 13.106934,17.047363 0,5.283203 c -5e-6,0.598961 -0.01954,1.02051 -0.05859,1.264649 -0.03907,0.240886 -0.154627,0.48991 -0.34668,0.74707 -0.192062,0.253907 -0.445968,0.447591 -0.761719,0.581055 -0.312503,0.130208 -0.681969,0.195312 -1.108398,0.195312 -0.472008,0 -0.8886738,-0.07813 -1.25,-0.234375 C 9.2202136,24.728028 8.9500316,24.524577 8.7709961,24.273926 8.5919591,24.023276 8.4861649,23.759604 8.4536133,23.48291 8.4210608,23.202964 8.4047848,22.617027 8.4047852,21.725098 l 0,-4.677735 2.0556638,0 0,5.927735 c -2e-6,0.345053 0.0179,0.566407 0.05371,0.664062 0.03906,0.0944 0.115557,0.141603 0.229492,0.141602 0.130206,1e-6 0.213214,-0.05208 0.249024,-0.15625 0.03906,-0.107421 0.05859,-0.358072 0.05859,-0.751953 l 0,-5.825196 2.055664,0"
     id="path3028"
     inkscape:connector-curvature="0" /><path
     d="m 17.452637,17.047363 1.176758,7.905274 -2.104493,0 -0.102539,-1.420899 -0.737304,0 -0.122071,1.420899 -2.128906,0 1.044922,-7.905274 2.973633,0 m -1.088867,5.083008 c -0.10417,-0.895178 -0.208336,-2.000321 -0.3125,-3.31543 -0.208336,1.510422 -0.338544,2.615564 -0.390625,3.31543 l 0.703125,0"
     id="path3030"
     inkscape:connector-curvature="0" /><path
     d="m 18.980957,17.047363 1.455078,0 c 0.970049,8e-6 1.625973,0.03744 1.967774,0.112305 0.345047,0.07488 0.624995,0.266935 0.839843,0.576172 0.218094,0.305996 0.327144,0.795905 0.327149,1.469726 -5e-6,0.61524 -0.0765,1.028651 -0.229492,1.240235 -0.153,0.211593 -0.454106,0.338546 -0.903321,0.380859 0.406897,0.100916 0.680334,0.236007 0.820313,0.405274 0.139969,0.169274 0.226232,0.325524 0.258789,0.46875 0.0358,0.139977 0.05371,0.528974 0.05371,1.166992 l 0,2.084961 -1.90918,0 0,-2.626953 c -3e-6,-0.423174 -0.03418,-0.685218 -0.102539,-0.786133 -0.06511,-0.100908 -0.239261,-0.151364 -0.522461,-0.151367 l 0,3.564453 -2.055664,0 0,-7.905274 m 2.055664,1.352539 0,1.757813 c 0.231117,5e-6 0.39225,-0.03092 0.483399,-0.09277 0.0944,-0.0651 0.141598,-0.271804 0.141601,-0.620117 l 0,-0.43457 c -3e-6,-0.250645 -0.04558,-0.415033 -0.136719,-0.493164 -0.08789,-0.07812 -0.250653,-0.117181 -0.488281,-0.117188"
     id="path3032"
     inkscape:connector-curvature="0" /><path
     d="m 24.371582,17.047363 1.538086,0 c 0.992836,8e-6 1.663408,0.04558 2.011719,0.136719 0.351558,0.09115 0.618485,0.240893 0.800781,0.449219 0.182287,0.20834 0.296219,0.441087 0.341797,0.698242 0.04557,0.253913 0.06835,0.755214 0.06836,1.503906 l 0,2.768555 c -5e-6,0.709637 -0.03419,1.184897 -0.102539,1.425781 -0.06511,0.237631 -0.180669,0.424805 -0.34668,0.561524 -0.16602,0.133463 -0.371098,0.227864 -0.615234,0.283203 -0.244144,0.05208 -0.611983,0.07813 -1.103516,0.07813 l -2.592773,0 0,-7.905274 m 2.055664,1.352539 0,5.200196 c 0.296221,1e-6 0.478513,-0.05859 0.546875,-0.175782 0.06836,-0.120441 0.102536,-0.444334 0.102539,-0.971679 l 0,-3.071289 c -3e-6,-0.358067 -0.0114,-0.587559 -0.03418,-0.688477 -0.02279,-0.100905 -0.07487,-0.174147 -0.15625,-0.219726 -0.08138,-0.04882 -0.234377,-0.07324 -0.458984,-0.07324"
     id="path3034"
     inkscape:connector-curvature="0" /></g><polygon
   transform="translate(-32.454627,-5.8477406)"
   style="fill:#ffffff"
   id="polygon7-2"
   points="16,2 16,29.75 25.232,27.008 27.688,2 "
   clip-path="url(#clipPath2999)" /><polygon
   transform="matrix(-1,0,0,1,-0.95673105,-5.8019014)"
   style="fill:#ffffff"
   id="polygon7-3"
   points="27.688,2 16,2 16,29.75 25.232,27.008 "
   clip-path="url(#clipPath3085)" /><path
   transform="translate(-33.74773,10.303042)"
   style="fill:#ff6c39"
   clip-path="url(#clipPath3176)"
   d="M 16,2 16,29.75 25.232,27.008 27.688,2 z"
   id="polygon7-1"
   inkscape:connector-curvature="0" /><path
   transform="matrix(-1,0,0,1,-2.4751555,10.284558)"
   style="fill:#ff6c39"
   clip-path="url(#clipPath3265)"
   d="M 25.232,27.008 27.688,2 16,2 16,29.75 z"
   id="polygon3174-1"
   inkscape:connector-curvature="0" /><text
   xml:space="preserve"
   style="font-size:14px;font-style:normal;font-variant:normal;font-weight:bold;font-stretch:normal;line-height:125%;letter-spacing:0px;word-spacing:0px;fill:#ffffff;fill-opacity:1;stroke:none;font-family:Impact;-inkscape-font-specification:Impact Bold"
   x="-46.647076"
   y="30.730709"
   id="text4110"
   sodipodi:linespacing="125%"><tspan
     sodipodi:role="line"
     id="tspan4112"
     x="-46.647076"
     y="30.730709">#</tspan></text>

<path
   id="path4115"
   d="m 15.137919,20.99168 0.0036,0.0054 c 0.08328,0.06653 0.134815,0.169774 0.134815,0.284217 0,0.202963 -0.164186,0.369122 -0.36908,0.369122 h -2.092803 c -0.40786,0 -0.738226,0.330325 -0.738226,0.738184 v 1.42486 c 0,0.202966 0.166177,0.369122 0.369143,0.369122 0.112452,0 0.212267,-0.04989 0.280396,-0.12939 0.01295,-0.01481 0.05732,-0.06092 0.06653,-0.06992 0.199309,-0.188341 0.466951,-0.302763 0.760368,-0.302763 0.610945,0 1.107309,0.496343 1.107309,1.10733 0,0.610967 -0.496382,1.107307 -1.107309,1.107307 -0.295246,0 -0.564838,-0.11627 -0.764187,-0.304629 -0.0072,-0.0072 -0.05151,-0.04977 -0.06271,-0.0663 -0.06813,-0.0793 -0.169774,-0.131077 -0.284013,-0.131077 -0.203107,0 -0.369122,0.166261 -0.369122,0.369124 l 0.0036,1.055633 c 0,0.407838 0.330367,0.738166 0.738226,0.738166 h 6.27477 c 0.407838,0 0.738184,-0.330328 0.738184,-0.738166 v -1.609272 c 0,-0.202966 -0.166198,-0.369144 -0.369143,-0.369144 -0.103451,0 -0.19754,0.04237 -0.26565,0.112635 l -0.07205,0.07751 c -0.199391,0.193721 -0.470548,0.3118 -0.769612,0.3118 -0.610967,0 -1.107307,-0.496364 -1.107307,-1.10733 0,-0.610967 0.49634,-1.107328 1.107307,-1.107328 0.300833,0 0.57209,0.120068 0.771418,0.313789 l 0.05726,0.06092 c 0.06829,0.07745 0.167948,0.127382 0.27863,0.127382 0.202944,0 0.369143,-0.166181 0.369143,-0.369044 v -0.871225 c 0,-0.407859 -0.330346,-0.738184 -0.738184,-0.738184 h -2.096663 c -0.202843,0 -0.369041,-0.166178 -0.369041,-0.369122 0,-0.103415 0.04256,-0.19732 0.112613,-0.265633 0.308206,-0.234468 0.507516,-0.60737 0.507516,-1.026198 0,-0.714297 -0.577594,-1.291871 -1.29187,-1.291871 -0.714198,0 -1.291832,0.577592 -1.291832,1.291871 2.1e-5,0.404041 0.18637,0.765913 0.477959,1.00223 z"
   clip-rule="evenodd"
   inkscape:connector-curvature="0"
   style="fill:#ffffff;fill-rule:evenodd" /></svg>